# xmcd CD database file
#
# Track frame offsets:
#	150
#	12077
#	22372
#	34252
#	46242
#	57297
#	67120
#	79975
#	92952
#
# Disc length: 1378 seconds
#
# Revision: 0
# Processed by: cddbd v1.5.1PL0 Copyright (c) Steve Scherf et al.
# Submitted via: Feurio! 1.67 - http://www.feurio.com
#
DISCID=7a056009
DTITLE=Buckshot - Dancin' on the Border
DYEAR=2004
DGENRE=
TTITLE0=Dancin' on the Border
TTITLE1=Lessons from a Loser
TTITLE2=Big Swing
TTITLE3=Boca Chica
TTITLE4=Girls wanna' Dance
TTITLE5=Rockin' N Texas
TTITLE6=Hard Livin'
TTITLE7=Taillights
TTITLE8=Sounds like Texas
EXTD=www.buckshot-music.com
EXTT0=
EXTT1=
EXTT2=
EXTT3=
EXTT4=
EXTT5=
EXTT6=
EXTT7=
EXTT8=
PLAYORDER=
